<svg xmlns="http://www.w3.org/2000/svg" xmlns:xlink="http://www.w3.org/1999/xlink" width="1024" zoomAndPan="magnify" viewBox="0 0 768 767.999994" height="1024" preserveAspectRatio="xMidYMid meet" version="1.0"><defs><g/><clipPath id="f611bb25c6"><path d="M 213.933594 320.355469 L 268.683594 320.355469 L 268.683594 375.105469 L 213.933594 375.105469 Z M 213.933594 320.355469 " clip-rule="nonzero"/></clipPath></defs><path fill="#00e878" d="M 256.15625 347.8125 L 245.921875 353.722656 L 235.6875 359.628906 L 235.6875 335.996094 L 245.921875 341.90625 Z M 256.15625 347.8125 " fill-opacity="1" fill-rule="evenodd"/><g clip-path="url(#f611bb25c6)"><path fill="#00e878" d="M 265.753906 347.8125 C 265.753906 361.269531 254.847656 372.175781 241.390625 372.175781 C 227.9375 372.175781 217.027344 361.269531 217.027344 347.8125 C 217.027344 334.359375 227.9375 323.449219 241.390625 323.449219 C 254.847656 323.449219 265.753906 334.359375 265.753906 347.8125 Z M 268.847656 347.8125 C 268.847656 332.648438 256.554688 320.355469 241.390625 320.355469 C 226.226562 320.355469 213.933594 332.648438 213.933594 347.8125 C 213.933594 362.976562 226.226562 375.269531 241.390625 375.269531 C 256.554688 375.269531 268.847656 362.976562 268.847656 347.8125 Z M 268.847656 347.8125 " fill-opacity="1" fill-rule="evenodd"/></g><g fill="#00e878" fill-opacity="1"><g transform="translate(143.156774, 446.509599)"><g><path d="M 10.78125 -91.484375 L 20.421875 -91.484375 L 20.421875 -28.328125 L 55.390625 -64.78125 L 67.421875 -64.78125 L 40.21875 -36.96875 L 68.296875 0 L 56.765625 0 L 33.578125 -30.203125 L 20.421875 -16.921875 L 20.421875 0 L 10.78125 0 Z M 10.78125 -91.484375 "/></g></g></g><g fill="#00e878" fill-opacity="1"><g transform="translate(204.932746, 446.509599)"><g><path d="M 34.59375 1.375 C 30.664062 1.375 27.175781 0.75 24.125 -0.5 C 21.070312 -1.75 18.476562 -3.519531 16.34375 -5.8125 C 14.21875 -8.113281 12.59375 -10.851562 11.46875 -14.03125 C 10.34375 -17.207031 9.78125 -20.71875 9.78125 -24.5625 L 9.78125 -64.78125 L 19.421875 -64.78125 L 19.421875 -26.9375 C 19.421875 -20.925781 20.96875 -16.164062 24.0625 -12.65625 C 27.15625 -9.144531 31.582031 -7.390625 37.34375 -7.390625 C 40.101562 -7.390625 42.671875 -7.867188 45.046875 -8.828125 C 47.429688 -9.796875 49.476562 -11.175781 51.1875 -12.96875 C 52.90625 -14.769531 54.265625 -16.921875 55.265625 -19.421875 C 56.265625 -21.929688 56.765625 -24.6875 56.765625 -27.6875 L 56.765625 -64.78125 L 66.296875 -64.78125 L 66.296875 0 L 56.765625 0 L 56.765625 -11.28125 C 54.597656 -7.769531 51.757812 -4.78125 48.25 -2.3125 C 44.738281 0.144531 40.1875 1.375 34.59375 1.375 Z M 34.59375 1.375 "/></g></g></g><g fill="#00e878" fill-opacity="1"><g transform="translate(273.851386, 446.509599)"><g><path d="M 37.96875 1.375 C 34.039062 1.375 30.238281 0.625 26.5625 -0.875 C 22.882812 -2.382812 19.582031 -4.578125 16.65625 -7.453125 C 13.738281 -10.335938 11.398438 -13.847656 9.640625 -17.984375 C 7.890625 -22.117188 7.015625 -26.859375 7.015625 -32.203125 L 7.015625 -32.453125 C 7.015625 -37.710938 7.890625 -42.429688 9.640625 -46.609375 C 11.398438 -50.785156 13.738281 -54.316406 16.65625 -57.203125 C 19.582031 -60.085938 22.882812 -62.300781 26.5625 -63.84375 C 30.238281 -65.394531 34.039062 -66.171875 37.96875 -66.171875 C 40.976562 -66.171875 43.734375 -65.789062 46.234375 -65.03125 C 48.742188 -64.28125 51 -63.28125 53 -62.03125 C 55.007812 -60.78125 56.828125 -59.316406 58.453125 -57.640625 C 60.085938 -55.972656 61.53125 -54.21875 62.78125 -52.375 L 62.78125 -91.484375 L 72.4375 -91.484375 L 72.4375 0 L 62.78125 0 L 62.78125 -13.03125 C 61.445312 -11.113281 59.960938 -9.273438 58.328125 -7.515625 C 56.703125 -5.765625 54.882812 -4.21875 52.875 -2.875 C 50.875 -1.539062 48.640625 -0.5 46.171875 0.25 C 43.710938 1 40.976562 1.375 37.96875 1.375 Z M 39.71875 -7.265625 C 42.726562 -7.265625 45.628906 -7.867188 48.421875 -9.078125 C 51.222656 -10.296875 53.726562 -12.007812 55.9375 -14.21875 C 58.15625 -16.4375 59.910156 -19.066406 61.203125 -22.109375 C 62.503906 -25.160156 63.15625 -28.566406 63.15625 -32.328125 L 63.15625 -32.578125 C 63.15625 -36.335938 62.503906 -39.742188 61.203125 -42.796875 C 59.910156 -45.847656 58.15625 -48.457031 55.9375 -50.625 C 53.726562 -52.800781 51.222656 -54.492188 48.421875 -55.703125 C 45.628906 -56.910156 42.726562 -57.515625 39.71875 -57.515625 C 36.550781 -57.515625 33.585938 -56.953125 30.828125 -55.828125 C 28.066406 -54.703125 25.660156 -53.070312 23.609375 -50.9375 C 21.566406 -48.8125 19.941406 -46.203125 18.734375 -43.109375 C 17.523438 -40.015625 16.921875 -36.503906 16.921875 -32.578125 L 16.921875 -32.328125 C 16.921875 -28.484375 17.523438 -25.015625 18.734375 -21.921875 C 19.941406 -18.835938 21.585938 -16.207031 23.671875 -14.03125 C 25.765625 -11.863281 28.191406 -10.191406 30.953125 -9.015625 C 33.710938 -7.847656 36.632812 -7.265625 39.71875 -7.265625 Z M 39.71875 -7.265625 "/></g></g></g><g fill="#00e878" fill-opacity="1"><g transform="translate(348.784846, 446.509599)"><g><path d="M 11.03125 -89.59375 L 22.0625 -89.59375 L 22.0625 -78.953125 L 11.03125 -78.953125 Z M 11.65625 -64.78125 L 21.296875 -64.78125 L 21.296875 0 L 11.65625 0 Z M 11.65625 -64.78125 "/></g></g></g><g fill="#00e878" fill-opacity="1"><g transform="translate(373.469568, 446.509599)"><g><path d="M 39.96875 1.5 C 35.207031 1.5 30.800781 0.601562 26.75 -1.1875 C 22.695312 -2.988281 19.1875 -5.410156 16.21875 -8.453125 C 13.257812 -11.503906 10.941406 -15.078125 9.265625 -19.171875 C 7.597656 -23.265625 6.765625 -27.566406 6.765625 -32.078125 L 6.765625 -32.328125 C 6.765625 -36.921875 7.597656 -41.265625 9.265625 -45.359375 C 10.941406 -49.453125 13.257812 -53.046875 16.21875 -56.140625 C 19.1875 -59.234375 22.695312 -61.675781 26.75 -63.46875 C 30.800781 -65.269531 35.207031 -66.171875 39.96875 -66.171875 C 43.0625 -66.171875 45.859375 -65.875 48.359375 -65.28125 C 50.867188 -64.695312 53.164062 -63.882812 55.25 -62.84375 C 57.34375 -61.800781 59.265625 -60.566406 61.015625 -59.140625 C 62.773438 -57.722656 64.410156 -56.222656 65.921875 -54.640625 L 59.53125 -47.875 C 56.9375 -50.539062 54.113281 -52.832031 51.0625 -54.75 C 48.007812 -56.675781 44.269531 -57.640625 39.84375 -57.640625 C 36.59375 -57.640625 33.546875 -56.992188 30.703125 -55.703125 C 27.859375 -54.410156 25.390625 -52.632812 23.296875 -50.375 C 21.210938 -48.125 19.585938 -45.472656 18.421875 -42.421875 C 17.253906 -39.367188 16.671875 -36.085938 16.671875 -32.578125 L 16.671875 -32.328125 C 16.671875 -28.816406 17.273438 -25.535156 18.484375 -22.484375 C 19.691406 -19.441406 21.359375 -16.769531 23.484375 -14.46875 C 25.617188 -12.175781 28.128906 -10.378906 31.015625 -9.078125 C 33.898438 -7.785156 37.050781 -7.140625 40.46875 -7.140625 C 44.644531 -7.140625 48.34375 -8.054688 51.5625 -9.890625 C 54.78125 -11.734375 57.6875 -14.035156 60.28125 -16.796875 L 66.421875 -11.03125 C 63.160156 -7.351562 59.460938 -4.34375 55.328125 -2 C 51.191406 0.332031 46.070312 1.5 39.96875 1.5 Z M 39.96875 1.5 "/></g></g></g><g fill="#00e878" fill-opacity="1"><g transform="translate(436.749327, 446.509599)"><g><path d="M 11.65625 -91.484375 L 21.296875 -91.484375 L 21.296875 0 L 11.65625 0 Z M 11.65625 -91.484375 "/></g></g></g><g fill="#00e878" fill-opacity="1"><g transform="translate(461.434071, 446.509599)"><g><path d="M 11.03125 -89.59375 L 22.0625 -89.59375 L 22.0625 -78.953125 L 11.03125 -78.953125 Z M 11.65625 -64.78125 L 21.296875 -64.78125 L 21.296875 0 L 11.65625 0 Z M 11.65625 -64.78125 "/></g></g></g><g fill="#00e878" fill-opacity="1"><g transform="translate(486.118793, 446.509599)"><g><path d="M 10.78125 -64.78125 L 20.421875 -64.78125 L 20.421875 -51.75 C 21.765625 -53.675781 23.25 -55.515625 24.875 -57.265625 C 26.5 -59.023438 28.3125 -60.550781 30.3125 -61.84375 C 32.320312 -63.132812 34.5625 -64.175781 37.03125 -64.96875 C 39.5 -65.769531 42.234375 -66.171875 45.234375 -66.171875 C 49.078125 -66.171875 52.859375 -65.414062 56.578125 -63.90625 C 60.296875 -62.40625 63.613281 -60.210938 66.53125 -57.328125 C 69.457031 -54.441406 71.796875 -50.929688 73.546875 -46.796875 C 75.304688 -42.660156 76.1875 -37.921875 76.1875 -32.578125 L 76.1875 -32.328125 C 76.1875 -27.066406 75.304688 -22.347656 73.546875 -18.171875 C 71.796875 -13.992188 69.476562 -10.460938 66.59375 -7.578125 C 63.71875 -4.703125 60.421875 -2.488281 56.703125 -0.9375 C 52.984375 0.601562 49.160156 1.375 45.234375 1.375 C 42.234375 1.375 39.476562 1 36.96875 0.25 C 34.457031 -0.5 32.195312 -1.5 30.1875 -2.75 C 28.1875 -4.007812 26.375 -5.472656 24.75 -7.140625 C 23.125 -8.816406 21.679688 -10.570312 20.421875 -12.40625 L 20.421875 20.046875 L 10.78125 20.046875 Z M 43.484375 -7.265625 C 46.578125 -7.265625 49.519531 -7.828125 52.3125 -8.953125 C 55.113281 -10.085938 57.535156 -11.71875 59.578125 -13.84375 C 61.628906 -15.976562 63.257812 -18.585938 64.46875 -21.671875 C 65.6875 -24.765625 66.296875 -28.273438 66.296875 -32.203125 L 66.296875 -32.453125 C 66.296875 -36.296875 65.6875 -39.765625 64.46875 -42.859375 C 63.257812 -45.953125 61.609375 -48.582031 59.515625 -50.75 C 57.429688 -52.925781 55.007812 -54.597656 52.25 -55.765625 C 49.5 -56.929688 46.578125 -57.515625 43.484375 -57.515625 C 40.472656 -57.515625 37.566406 -56.910156 34.765625 -55.703125 C 31.972656 -54.492188 29.46875 -52.78125 27.25 -50.5625 C 25.039062 -48.351562 23.285156 -45.722656 21.984375 -42.671875 C 20.691406 -39.617188 20.046875 -36.253906 20.046875 -32.578125 L 20.046875 -32.328125 C 20.046875 -28.566406 20.691406 -25.140625 21.984375 -22.046875 C 23.285156 -18.960938 25.039062 -16.332031 27.25 -14.15625 C 29.46875 -11.988281 31.972656 -10.296875 34.765625 -9.078125 C 37.566406 -7.867188 40.472656 -7.265625 43.484375 -7.265625 Z M 43.484375 -7.265625 "/></g></g></g></svg>